<svg width="211" height="211" viewBox="0 0 211 211" fill="none" xmlns="http://www.w3.org/2000/svg">
<circle cx="105.5" cy="105.5" r="104" stroke="#C90000" stroke-width="3"/>
<path d="M91.125 67.1667L103.104 93.5209L129.458 105.5L103.104 117.479L91.125 143.833L79.1458 117.479L52.7917 105.5L79.1458 93.5209L91.125 67.1667ZM91.125 90.3104L86.3333 100.708L75.9354 105.5L86.3333 110.292L91.125 120.69L95.9167 110.292L106.315 105.5L95.9167 100.708L91.125 90.3104ZM139.042 91.125L133.004 77.9959L119.875 71.9584L133.004 65.9688L139.042 52.7917L145.031 65.9688L158.208 71.9584L145.031 77.9959L139.042 91.125ZM139.042 158.208L133.004 145.079L119.875 139.042L133.004 133.052L139.042 119.875L145.031 133.052L158.208 139.042L145.031 145.079L139.042 158.208Z" fill="#00255B"/>
</svg>
