<svg width="211" height="211" viewBox="0 0 211 211" fill="none" xmlns="http://www.w3.org/2000/svg">
<circle cx="105.5" cy="105.5" r="104" stroke="#C90000" stroke-width="3"/>
<path d="M62.375 95.9166C61.225 95.9166 60.2187 96.3479 59.5479 97.1146C58.8771 97.8333 58.5896 98.8875 58.7333 100.037L61.1292 114.365C61.5125 117.479 64.2917 119.875 67.1667 119.875H81.5417C84.6083 119.875 88.0583 117.192 88.7292 114.221L93.8083 98.9354C94 98.3125 93.8562 97.4021 93.5208 96.8271C92.9937 96.2521 92.1792 95.9166 91.125 95.9166H62.375ZM81.5417 129.458H67.1667C59.4042 129.458 52.6 123.421 51.6417 115.754L49.2458 101.427C48.7187 97.3541 49.8687 93.5208 52.3604 90.7416C54.8521 87.9625 58.4937 86.3333 62.375 86.3333H91.125C95.1021 86.3333 98.6958 88.0104 100.996 90.9333C101.523 91.6521 102.002 92.4187 102.385 93.2812C104.446 92.85 106.554 92.85 108.567 93.2812C108.95 92.4187 109.429 91.6521 110.004 90.9333C112.256 88.0104 115.85 86.3333 119.875 86.3333H148.625C152.506 86.3333 156.148 87.9625 158.64 90.7416C161.083 93.5208 162.233 97.3541 161.754 101.235L159.31 115.946C158.4 123.421 151.548 129.458 143.833 129.458H129.458C121.983 129.458 114.7 123.756 112.879 116.521L108.567 103.535C106.746 102.194 104.206 102.194 102.385 103.535L97.9771 116.856C96.2521 123.804 89.0167 129.458 81.5417 129.458ZM119.875 95.9166C118.821 95.9166 118.006 96.2521 117.479 96.8271C117.096 97.4021 117 98.3125 117.24 99.2708L122.079 113.885C122.942 117.192 126.392 119.875 129.458 119.875H143.833C146.66 119.875 149.487 117.479 149.823 114.556L152.267 99.8458C152.41 98.8875 152.123 97.8333 151.452 97.1146C151.095 96.7234 150.657 96.4138 150.169 96.2071C149.681 96.0004 149.155 95.9013 148.625 95.9166H119.875Z" fill="#00255B"/>
</svg>
